<svg width="1277" height="562" viewBox="0 0 1277 562" fill="none" xmlns="http://www.w3.org/2000/svg">
<path d="M993.115 517.4L1205.25 540.093L1205.48 537.633L998.23 515.41L993.115 517.4Z" fill="#11E0C5"/>
<path d="M1148.77 529.244L1169.45 531.48L1168.83 538.151L1148.15 535.914L1148.77 529.244Z" fill="#263238"/>
<path d="M1185.96 513.519C1193.28 513.95 1190.06 522.951 1187.21 531.939C1186.19 535.17 1185.87 538.617 1186.27 542.005C1187.4 551.424 1188.89 560.931 1181.63 559.787C1174.17 558.611 1176.9 549.457 1182.16 539.685C1183.19 537.764 1183.41 535.434 1182.75 533.33C1179.42 522.627 1178.43 513.074 1185.96 513.519Z" fill="#248E80"/>
<path d="M1181.38 533.376L1187.7 534.059L1187.42 537.053L1181.1 536.37L1181.38 533.376Z" fill="#11E0C5"/>
<path d="M1181.13 536.369L1187.45 537.051L1187.18 539.872L1180.87 539.191L1181.13 536.369Z" fill="#0F554B"/>
<path d="M1205.63 515.636C1212.95 516.067 1209.73 525.068 1206.88 534.056C1205.85 537.287 1205.53 540.734 1205.93 544.122C1207.06 553.541 1208.55 563.048 1201.3 561.904C1193.83 560.728 1196.57 551.574 1201.82 541.802C1202.86 539.881 1203.08 537.552 1202.42 535.448C1199.08 524.748 1198.09 515.192 1205.63 515.636Z" fill="#248E80"/>
<path d="M1201.01 535.489L1207.32 536.172L1207.04 539.166L1200.73 538.483L1201.01 535.489Z" fill="#11E0C5"/>
<path d="M1200.78 538.509L1207.09 539.191L1206.83 542.013L1200.52 541.331L1200.78 538.509Z" fill="#0F554B"/>
<path d="M1156.89 501.851L1168.6 501.629L1162.78 538.406L1153.62 537.417L1156.89 501.851Z" fill="#248E80"/>
<path d="M1074.62 522.035L1084.95 523.152L1084.69 526.01L1074.35 524.892L1074.62 522.035Z" fill="#0F554B"/>
<path d="M1074.34 524.891L1084.67 526.008L1084.44 528.537L1074.1 527.42L1074.34 524.891Z" fill="#242E33"/>
<path d="M1072.72 502.15L1084.36 502.078L1081.6 529.528L1077.47 529.081L1072.72 502.15Z" fill="#29353B"/>
<path d="M1251.98 500.055L1242.58 533.408H1233.26L1243.58 500.055H1251.98Z" fill="#29353B"/>
<path d="M1225.83 500.055H1243.59L1233.27 533.408H1225.83V500.055Z" fill="#324047"/>
<path d="M1261.79 381.556L1255.07 499.792L1034.38 503.382L954.456 529.996L245.722 528.075C208.597 527.948 173.106 511.648 147.356 482.898L47.036 353.828C206.703 354.55 254.003 381.549 373.825 381.549C429.419 381.556 1158.42 381.556 1261.79 381.556Z" fill="#086155"/>
<path d="M58.5905 293.939H102.013L107 288.578H368.257L372.828 298.902H53.9742L58.5905 293.939Z" fill="white"/>
<path d="M372.829 298.895L375.555 305.043L48.9207 304.324L53.9747 298.895H372.829Z" fill="#BADDF9"/>
<path d="M690.727 263.037L641.536 81.5664H616.938V96.7715L623.879 109.83V173.738H530.555L539.11 206.372L618.615 270.221L690.727 263.037Z" fill="#E3F1FC"/>
<path d="M631.662 173.733L633.051 124.227H642.475L656.844 173.733H631.662Z" fill="white"/>
<path d="M609.668 199.538H619.691C621.627 199.538 623.195 197.852 623.195 195.771V186.607C623.195 184.526 621.627 182.84 619.691 182.84H609.668C607.733 182.84 606.164 184.526 606.164 186.607V195.771C606.164 197.852 607.733 199.538 609.668 199.538Z" fill="#32C7B4"/>
<path d="M587.239 199.538H597.262C599.198 199.538 600.766 197.852 600.766 195.771V186.607C600.766 184.526 599.198 182.84 597.262 182.84H587.239C585.303 182.84 583.735 184.526 583.735 186.607V195.771C583.735 197.852 585.303 199.538 587.239 199.538Z" fill="#32C7B4"/>
<path d="M564.786 199.538H574.808C576.744 199.538 578.312 197.852 578.312 195.771V186.607C578.312 184.526 576.744 182.84 574.808 182.84H564.786C562.85 182.84 561.281 184.526 561.281 186.607V195.771C561.281 197.852 562.85 199.538 564.786 199.538Z" fill="#32C7B4"/>
<path d="M542.356 199.538H552.379C554.315 199.538 555.883 197.852 555.883 195.771V186.607C555.883 184.526 554.315 182.84 552.379 182.84H542.356C540.42 182.84 538.852 184.526 538.852 186.607V195.771C538.852 197.852 540.42 199.538 542.356 199.538Z" fill="#32C7B4"/>
<path d="M747.196 215.207H774.977V233.173L747.196 229.84V215.207Z" fill="#32C7B4"/>
<path d="M774.977 233.164V282.772H747.196V229.832L774.977 233.164Z" fill="#263238"/>
<path d="M785.673 215.207H813.453V233.173L785.673 229.84V215.207Z" fill="#32C7B4"/>
<path d="M813.453 233.164V282.772H785.673V229.832L813.453 233.164Z" fill="#263238"/>
<path d="M1025.05 310.148V302.601C1025.05 298.599 1028.07 295.355 1031.8 295.355H1054.64V277.389C1054.64 268.111 1061.64 260.59 1070.26 260.59H1119.51C1128.14 260.59 1135.14 268.111 1135.14 277.389V309.779H1178.14C1184.79 309.779 1190.18 315.572 1190.18 322.717V338.255L984.805 338.624V335.465C984.805 321.482 995.347 310.148 1008.35 310.148H1025.05Z" fill="white"/>
<path d="M1102.81 320.738H1111.91V340.984H1102.81V320.738Z" fill="white" stroke="#CED7DB" stroke-width="0.788628" stroke-miterlimit="10"/>
<path d="M417.043 277.51H447.853L488.932 241.526H508.71L514.715 234.587H637.853L632.471 217.226H529.741L539.143 206.359H644.499C649.435 206.359 653.987 209.228 656.397 213.857L679.117 257.473H698.166C702.877 257.473 707.256 260.087 709.745 264.389L716.392 275.873H819.429C824.385 275.873 828.95 278.761 831.354 283.42L852.944 325.252H893.029C896.645 325.252 900.113 326.797 902.672 329.545L908.477 335.785C908.477 335.785 764.661 335.785 705.876 335.785C494.904 335.785 556.956 304.088 386.621 304.088L417.043 277.51Z" fill="white"/>
<path d="M841.789 311.754C744.514 311.754 631.26 311.754 631.26 311.754L623.036 320.595H502.968" fill="white"/>
<path d="M841.789 311.754C744.514 311.754 631.26 311.754 631.26 311.754L623.036 320.595H502.968" stroke="#CED7DB" stroke-width="0.788628" stroke-miterlimit="10"/>
<path d="M631.266 311.754L607.47 261.34H485.624L453.625 289.139H408.699" fill="white"/>
<path d="M631.266 311.754L607.47 261.34H485.624L453.625 289.139H408.699" stroke="#CED7DB" stroke-width="0.788628" stroke-miterlimit="10" stroke-linecap="round"/>
<path d="M462.408 281.512H617" stroke="#CED7DB" stroke-width="0.788628" stroke-miterlimit="10" stroke-linecap="round"/>
<path d="M841.789 311.754C744.514 311.754 631.26 311.754 631.26 311.754L623.036 320.595H502.968" fill="white"/>
<path d="M841.789 311.754C744.514 311.754 631.26 311.754 631.26 311.754L623.036 320.595H502.968" stroke="#CED7DB" stroke-width="0.788628" stroke-miterlimit="10"/>
<path d="M631.266 311.754L607.47 261.34H485.624L453.625 289.139H408.699" fill="white"/>
<path d="M631.266 311.754L607.47 261.34H485.624L453.625 289.139H408.699" stroke="#CED7DB" stroke-width="0.788628" stroke-miterlimit="10" stroke-linecap="round"/>
<path d="M462.408 281.512H617" stroke="#CED7DB" stroke-width="0.788628" stroke-miterlimit="10" stroke-linecap="round"/>
<path d="M637.844 234.584H514.706L529.729 217.223H632.462L637.844 234.584Z" fill="#32C7B4"/>
<path d="M386.583 304.09C556.917 304.09 494.868 335.787 705.838 335.787C764.623 335.787 908.438 335.787 908.438 335.787H1195.6C1199.4 335.787 1203 333.99 1205.45 330.873C1207.93 327.72 1211.59 325.92 1215.43 325.959L1276.26 326.606L1273.53 336.953C1265.59 336.953 1253.37 336.953 1245.04 336.953C1231.77 336.953 1233.03 344.536 1217.25 344.536C1201.47 344.536 698.951 344.536 619.103 344.536C539.254 344.536 472.792 319.35 429.282 319.35C391.941 319.35 98.5969 319.35 16.1558 319.35L0 301.312L386.583 304.09Z" fill="#E3F1FC"/>
<path d="M429.274 319.359C472.784 319.359 539.246 344.545 619.094 344.545C698.943 344.545 1201.46 344.545 1217.24 344.545C1233.02 344.545 1231.76 336.962 1245.03 336.962C1253.37 336.962 1265.58 336.962 1273.52 336.962L1261.78 381.552C1158.41 381.552 429.407 381.552 373.814 381.552C253.992 381.552 206.695 354.552 47.0245 353.83L16.1505 319.359C98.5856 319.359 391.933 319.359 429.274 319.359Z" fill="#248E80"/>
<path d="M633.128 23.4969H638.094V34.311H634.493V75.4273H637.35L638.219 81.8373L631.512 82.9057V0L633.128 23.4969Z" fill="white"/>
<path d="M625.665 75.4273H628.522V34.311H624.92V23.4969H629.886L631.5 0V82.9057L624.796 81.8373L625.665 75.4273Z" fill="#BADDF9"/>
<path d="M585.733 44.0781H676.602V57.7868H585.733V44.0781Z" fill="white"/>
<path d="M585.733 57.793H676.602V69.5871H585.733V57.793Z" fill="#E3F1FC"/>
<path d="M617.832 217.242H620.188V234.604H617.832V217.242Z" fill="#E3F1FC"/>
<path d="M596.942 217.242H599.297V234.604H596.942V217.242Z" fill="#E3F1FC"/>
<path d="M576.043 217.242H578.398V234.604H576.043V217.242Z" fill="#E3F1FC"/>
<path d="M555.184 217.242H557.539V234.604H555.184V217.242Z" fill="#E3F1FC"/>
<path d="M534.317 217.242H536.672V234.604H534.317V217.242Z" fill="#E3F1FC"/>
<path d="M358.148 291.975V271.082" stroke="white" stroke-width="1.428" stroke-miterlimit="10"/>
<path d="M345.539 291.975V271.082" stroke="white" stroke-width="1.428" stroke-miterlimit="10"/>
<path d="M332.898 291.975V271.082" stroke="white" stroke-width="1.428" stroke-miterlimit="10"/>
<path d="M320.273 291.975V271.082" stroke="white" stroke-width="1.428" stroke-miterlimit="10"/>
<path d="M307.664 291.975V271.082" stroke="white" stroke-width="1.428" stroke-miterlimit="10"/>
<path d="M295.023 291.975V271.082" stroke="white" stroke-width="1.428" stroke-miterlimit="10"/>
<path d="M282.406 291.975V271.082" stroke="white" stroke-width="1.428" stroke-miterlimit="10"/>
<path d="M269.797 291.975V271.082" stroke="white" stroke-width="1.428" stroke-miterlimit="10"/>
<path d="M257.156 291.975V271.082" stroke="white" stroke-width="1.428" stroke-miterlimit="10"/>
<path d="M244.516 291.975V271.082" stroke="white" stroke-width="1.428" stroke-miterlimit="10"/>
<path d="M231.93 291.975V271.082" stroke="white" stroke-width="1.428" stroke-miterlimit="10"/>
<path d="M219.305 291.975V271.082" stroke="white" stroke-width="1.428" stroke-miterlimit="10"/>
<path d="M206.641 291.975V271.082" stroke="white" stroke-width="1.428" stroke-miterlimit="10"/>
<path d="M194.016 291.975V271.082" stroke="white" stroke-width="1.428" stroke-miterlimit="10"/>
<path d="M181.414 291.975V271.082" stroke="white" stroke-width="1.428" stroke-miterlimit="10"/>
<path d="M168.773 291.975V271.082" stroke="white" stroke-width="1.428" stroke-miterlimit="10"/>
<path d="M156.148 291.975V271.082" stroke="white" stroke-width="1.428" stroke-miterlimit="10"/>
<path d="M143.547 291.975V271.082" stroke="white" stroke-width="1.428" stroke-miterlimit="10"/>
<path d="M130.906 291.975V271.082" stroke="white" stroke-width="1.428" stroke-miterlimit="10"/>
<path d="M118.281 291.975V271.082" stroke="white" stroke-width="1.428" stroke-miterlimit="10"/>
<path d="M366.039 271.598H105.772" stroke="white" stroke-width="2.14209" stroke-miterlimit="10" stroke-linecap="round"/>
<path d="M68.6212 336.967C68.6212 340.865 71.56 344.024 75.1856 344.024C78.8112 344.024 81.75 340.865 81.75 336.967C81.75 333.069 78.8112 329.91 75.1856 329.91C71.56 329.913 68.6212 333.073 68.6212 336.967Z" stroke="white" stroke-width="1.428" stroke-miterlimit="10"/>
<path d="M102.731 336.967C102.731 340.865 105.669 344.024 109.295 344.024C112.921 344.024 115.859 340.865 115.859 336.967C115.859 333.069 112.921 329.91 109.295 329.91C105.669 329.91 102.731 333.073 102.731 336.967Z" stroke="white" stroke-width="1.428" stroke-miterlimit="10"/>
<path d="M140.801 336.967C140.801 340.865 143.74 344.024 147.365 344.024C150.991 344.024 153.93 340.865 153.93 336.967C153.93 333.069 150.991 329.91 147.365 329.91C143.74 329.91 140.801 333.073 140.801 336.967Z" stroke="white" stroke-width="1.428" stroke-miterlimit="10"/>
<path d="M1172.98 327.671C1172.98 329.846 1174.62 331.611 1176.65 331.611C1178.67 331.611 1180.31 329.846 1180.31 327.671C1180.31 325.495 1178.67 323.73 1176.65 323.73C1174.62 323.73 1172.98 325.495 1172.98 327.671Z" fill="#CED7DB"/>
<path d="M1159.67 327.671C1159.67 329.846 1161.31 331.611 1163.33 331.611C1165.36 331.611 1167 329.846 1167 327.671C1167 325.495 1165.36 323.73 1163.33 323.73C1161.31 323.73 1159.67 325.495 1159.67 327.671Z" fill="#CED7DB"/>
<path d="M1146.37 327.671C1146.37 329.846 1148.01 331.611 1150.03 331.611C1152.05 331.611 1153.7 329.846 1153.7 327.671C1153.7 325.495 1152.05 323.73 1150.03 323.73C1148.01 323.73 1146.37 325.495 1146.37 327.671Z" fill="#CED7DB"/>
<path d="M1133.06 327.671C1133.06 329.846 1134.7 331.611 1136.73 331.611C1138.75 331.611 1140.39 329.846 1140.39 327.671C1140.39 325.495 1138.75 323.73 1136.73 323.73C1134.7 323.73 1133.06 325.495 1133.06 327.671Z" fill="#CED7DB"/>
<path d="M1074.25 327.671C1074.25 329.846 1075.89 331.611 1077.91 331.611C1079.94 331.611 1081.58 329.846 1081.58 327.671C1081.58 325.495 1079.94 323.73 1077.91 323.73C1075.89 323.73 1074.25 325.495 1074.25 327.671Z" fill="#CED7DB"/>
<path d="M1060.92 327.671C1060.92 329.846 1062.56 331.611 1064.58 331.611C1066.61 331.611 1068.25 329.846 1068.25 327.671C1068.25 325.495 1066.61 323.73 1064.58 323.73C1062.56 323.73 1060.92 325.495 1060.92 327.671Z" fill="#CED7DB"/>
<path d="M1047.63 327.671C1047.63 329.846 1049.27 331.611 1051.3 331.611C1053.32 331.611 1054.96 329.846 1054.96 327.671C1054.96 325.495 1053.32 323.73 1051.3 323.73C1049.27 323.73 1047.63 325.495 1047.63 327.671Z" fill="#CED7DB"/>
<path d="M1034.29 327.671C1034.29 329.846 1035.94 331.611 1037.96 331.611C1039.98 331.611 1041.62 329.846 1041.62 327.671C1041.62 325.495 1039.98 323.73 1037.96 323.73C1035.94 323.73 1034.29 325.495 1034.29 327.671Z" fill="#CED7DB"/>
</svg>
