<svg width="568" height="145" viewBox="0 0 568 145" fill="none" xmlns="http://www.w3.org/2000/svg">
<path d="M97.6542 72.5542H10.1053L20.2137 56.8235H107.763L97.6542 72.5542Z" fill="url(#paint0_linear_2773_293)"/>
<path d="M87.549 118.724H3.8147e-05L10.1085 102.994H97.6574L87.549 118.724Z" fill="url(#paint1_linear_2773_293)"/>
<path d="M107.737 25.0027H20.1882L30.2966 9.27197H117.846L107.737 25.0027Z" fill="url(#paint2_linear_2773_293)"/>
<path d="M10.1053 72.5491V102.997H22.0781V72.5491H10.1053Z" fill="white"/>
<path d="M20.1882 25.0027V56.8181H32.161V25.0027H20.1882Z" fill="white"/>
<g filter="url(#filter0_d_2773_293)">
<path d="M134.256 9.27148L124.71 24.8309H419.525V118.727L435.031 110.834L435.113 24.8458L534.788 24.8309H556.185L565.718 9.27148H134.256Z" fill="url(#paint3_linear_2773_293)"/>
</g>
<path d="M200.883 112.98L194.062 100.827L193.921 74.0013" stroke="url(#paint4_linear_2773_293)" stroke-width="1.26487"/>
<path d="M223.028 112.98L229.849 100.827L229.99 74.0013" stroke="url(#paint5_linear_2773_293)" stroke-width="1.26487"/>
<path d="M236.927 102.58L227.288 119.742H196.108L187.06 102.499V55.5438L201.296 51.0727L192.413 58.2559V101.181L199.345 114.388H224.155L231.573 101.181V58.2559L222.585 51.0727L236.927 55.5438V102.58Z" fill="url(#paint6_linear_2773_293)"/>
<path d="M152.76 52.4109C156.602 52.4109 160.411 52.9147 164.187 53.9216C167.968 54.9298 171.26 56.3832 174.055 58.2888L174.426 58.5417L174.254 58.9568L171.177 66.4167L170.92 67.0398L170.359 66.6667C167.61 64.8342 164.713 63.5232 161.667 62.7312L161.658 62.7283C158.593 61.8701 155.627 61.4431 152.76 61.4431C149.133 61.4431 146.193 61.9051 143.917 62.8035C141.628 63.707 139.99 64.8918 138.95 66.3308L138.769 66.6062C137.896 67.9953 137.459 69.5362 137.459 71.2419C137.459 73.4181 138.131 75.0981 139.434 76.3445C140.859 77.6479 142.681 78.6985 144.918 79.4851C147.26 80.2861 149.821 81.027 152.6 81.7068H152.601C155.41 82.331 158.219 83.0488 161.028 83.8601H161.027C163.923 84.6788 166.544 85.7512 168.887 87.0808H168.886C171.322 88.4279 173.285 90.2288 174.765 92.4812C176.27 94.7716 177 97.6836 177 101.177C177 104.58 176.068 107.759 174.211 110.705L174.208 110.71C172.335 113.616 169.445 115.947 165.58 117.72L165.578 117.722C161.753 119.443 156.944 120.289 151.175 120.289C146.145 120.289 141.33 119.534 136.734 118.023L136.728 118.021C132.14 116.45 128.49 114.427 125.806 111.934L125.508 111.659L125.682 111.293L129.133 104.018L129.447 103.357L129.996 103.84C132.422 105.962 135.531 107.734 139.337 109.146C143.129 110.553 147.075 111.257 151.175 111.257C154.932 111.257 157.938 110.824 160.216 109.985C162.508 109.141 164.144 108.014 165.181 106.635C166.232 105.176 166.755 103.549 166.755 101.737C166.755 99.6358 166.062 97.9873 164.697 96.7361L164.688 96.7283C163.329 95.4285 161.508 94.3765 159.203 93.5876L159.195 93.5847L159.186 93.5818C156.914 92.7221 154.391 91.9829 151.615 91.366C148.806 90.7419 145.968 90.0246 143.098 89.2136L143.084 89.2097C140.254 88.3291 137.639 87.2263 135.241 85.9011L135.235 85.8982C132.86 84.5501 130.929 82.749 129.451 80.4988L129.447 80.4929C127.945 78.1421 127.214 75.1699 127.214 71.615C127.214 68.1566 128.113 64.9777 129.91 62.0906L129.911 62.0876C131.781 59.1206 134.608 56.7866 138.355 55.072C142.18 53.2876 146.991 52.4109 152.76 52.4109Z" fill="white" stroke="url(#paint7_linear_2773_293)" stroke-width="1.10593"/>
<path d="M559.44 57.3306V65.8218H532.996L531.471 81.0132H537.497C543.478 81.0132 548.342 81.7807 552.057 83.3481C555.76 84.9104 558.495 87.1002 560.21 89.938H560.209C561.908 92.6945 562.751 95.8805 562.751 99.4771C562.751 102.966 561.906 106.174 560.214 109.091L560.212 109.095C558.509 111.972 555.934 114.275 552.517 116.012L552.513 116.014C549.131 117.705 544.851 118.535 539.704 118.535C535.458 118.535 531.324 117.874 527.307 116.554L527.305 116.553C523.346 115.234 520.078 113.447 517.521 111.18L517.182 110.879L517.411 110.488L521.315 103.782L521.666 103.18L522.172 103.658C524.088 105.464 526.595 106.958 529.712 108.126C532.815 109.29 536.116 109.874 539.619 109.874C544.077 109.874 547.417 108.925 549.716 107.107C552.011 105.293 553.156 102.88 553.156 99.8159C553.156 97.7029 552.643 95.8871 551.634 94.3472C550.653 92.8492 548.915 91.6627 546.326 90.8364L546.319 90.8335L546.312 90.8315C543.793 89.9556 540.271 89.5044 535.714 89.5044H521.606L521.668 88.895L524.808 57.8276L524.858 57.3306H559.44ZM488.076 56.6519C492.263 56.6519 495.933 57.3394 499.072 58.7329C502.213 60.0708 504.651 62.0304 506.358 64.6177L506.679 65.1089C508.232 67.5939 509.001 70.4837 509.001 73.7573C509.001 75.7306 508.739 77.675 508.217 79.5894C507.688 81.53 506.694 83.5663 505.255 85.6958C503.813 87.8311 501.748 90.2086 499.073 92.8267L499.07 92.8296L481.926 109.365H511.547V117.855H467.745V111.295L467.914 111.132L492.105 87.7896L492.109 87.7856C494.245 85.7619 495.797 84.0118 496.783 82.5327L496.786 82.5288C497.839 80.9763 498.511 79.5912 498.83 78.3706L498.832 78.3628L498.835 78.356C499.218 77.0415 499.406 75.7919 499.406 74.606C499.406 71.6972 498.392 69.4566 496.384 67.8188C494.371 66.1762 491.375 65.312 487.311 65.312C484.206 65.3121 481.423 65.8389 478.954 66.8813L478.944 66.8853C476.486 67.8685 474.352 69.4261 472.54 71.5679L472.178 71.9946L471.755 71.6284L465.983 66.6196L465.586 66.2749L465.91 65.8608C468.239 62.8911 471.348 60.6296 475.217 59.0698L475.957 58.7769C479.676 57.3581 483.718 56.6519 488.076 56.6519Z" fill="white" stroke="url(#paint8_linear_2773_293)" stroke-width="1.10593"/>
<path d="M459.254 36.5083H446.715L444.621 50.5035H457.411L459.254 36.5083Z" fill="url(#paint9_linear_2773_293)"/>
<path d="M30.3374 0.00830078H36.0064V1.1204H31.4495V3.34461H35.3391V4.45671H31.4495V6.67549H36.0064V7.78759H30.3374V0.00830078Z" fill="white"/>
<path d="M38.6743 4.12037H41.2728V5.18907H38.6743V4.12037Z" fill="white"/>
<path d="M44.2771 1.1204C44.2771 0.968506 44.3061 0.82565 44.3639 0.691837C44.4218 0.554406 44.5014 0.436867 44.6026 0.339219C44.7039 0.237954 44.8214 0.158389 44.9553 0.100524C45.0927 0.0390418 45.2373 0.00830078 45.3892 0.00830078H49.6098C49.7617 0.00830078 49.9046 0.0390418 50.0384 0.100524C50.1758 0.158389 50.2952 0.237954 50.3964 0.339219C50.4977 0.436867 50.5772 0.554406 50.6351 0.691837C50.693 0.82565 50.7219 0.968506 50.7219 1.1204V2.12401H49.6098V1.1204H45.3892V6.67549H49.6098V5.67731H50.7219V6.67549C50.7219 6.82738 50.693 6.97205 50.6351 7.10948C50.5772 7.24329 50.4977 7.36083 50.3964 7.4621C50.2952 7.56336 50.1758 7.64292 50.0384 7.70079C49.9046 7.75866 49.7617 7.78759 49.6098 7.78759H45.3892C45.2373 7.78759 45.0927 7.75866 44.9553 7.70079C44.8214 7.64292 44.7039 7.56336 44.6026 7.4621C44.5014 7.36083 44.4218 7.24329 44.3639 7.10948C44.3061 6.97205 44.2771 6.82738 44.2771 6.67549V1.1204Z" fill="white"/>
<path d="M53.6123 0.00830078H59.2813V1.1204H54.7244V3.34461H58.614V4.45671H54.7244V6.67549H59.2813V7.78759H53.6123V0.00830078Z" fill="white"/>
<path d="M63.1699 0.00830078V6.67549H67.168V7.78759H62.0578V0.00830078H63.1699Z" fill="white"/>
<path d="M70.7256 0.00830078V6.67549H74.7238V7.78759H69.6135V0.00830078H70.7256Z" fill="white"/>
<path d="M82.7233 0.00830078V7.78759H81.6112V0.00830078H82.7233Z" fill="white"/>
<path d="M86.9482 0.00830078V7.78759H85.8361V0.00830078H86.9482Z" fill="white"/>
<path d="M89.3938 0.00830078H95.6161V1.1204H93.061V7.78759H91.9489V1.1204H89.3938V0.00830078Z" fill="white"/>
<path d="M103.616 0.00830078V3.36631L107.326 0.00830078H108.894L104.684 3.822L109.062 7.78759H107.494L103.616 4.28854V7.78759H102.504V0.00830078H103.616Z" fill="white"/>
<path d="M114.633 0.00830078L117.632 7.78759H116.52L115.831 5.99738H112.322L111.633 7.78759H110.52L113.52 0.00830078H114.633ZM112.745 4.88527H115.403L114.079 1.45675L112.745 4.88527Z" fill="white"/>
<path d="M121.19 7.78759H120.078V0.00830078H121.19L125.866 6.04077V0.00830078H126.978V7.78759H125.866L121.19 1.75511V7.78759Z" fill="white"/>
<path d="M130.086 7.78759V0.00830078H134.344C135.603 0.00830078 136.232 0.639396 136.232 1.90159V3.00826C136.232 4.27045 135.603 4.90155 134.344 4.90155H131.198V7.78759H130.086ZM131.198 3.78945H134.285C134.581 3.78945 134.795 3.72435 134.925 3.59415C135.055 3.46395 135.12 3.25057 135.12 2.95401V1.95584C135.12 1.65927 135.055 1.4459 134.925 1.3157C134.795 1.1855 134.581 1.1204 134.285 1.1204H131.198V3.78945Z" fill="white"/>
<path d="M138.9 0.00830078H140.012V6.67549H144.455V0.00830078H145.567V6.67549C145.567 6.82738 145.538 6.97205 145.481 7.10948C145.423 7.24329 145.343 7.36083 145.242 7.4621C145.141 7.56336 145.021 7.64292 144.884 7.70079C144.75 7.75866 144.607 7.78759 144.455 7.78759H140.012C139.86 7.78759 139.716 7.75866 139.578 7.70079C139.444 7.64292 139.327 7.56336 139.226 7.4621C139.124 7.36083 139.045 7.24329 138.987 7.10948C138.929 6.97205 138.9 6.82738 138.9 6.67549V0.00830078Z" fill="white"/>
<path d="M154.827 2.78584C154.827 3.87082 154.364 4.48926 153.438 4.64115L154.903 7.78759H153.671L152.228 4.67913H149.792V7.78759H148.68V0.00830078H152.939C154.197 0.00830078 154.827 0.639396 154.827 1.90159V2.78584ZM149.792 3.56703H152.879C153.176 3.56703 153.389 3.50193 153.519 3.37173C153.649 3.24153 153.714 3.02815 153.714 2.73159V1.95584C153.714 1.65927 153.649 1.4459 153.519 1.3157C153.389 1.1855 153.176 1.1204 152.879 1.1204H149.792V3.56703Z" fill="white"/>
<path d="M158.476 3.29036H157.69L158.487 1.63034H157.69V0.00830078H159.312V1.63034L158.476 3.29036Z" fill="white"/>
<path d="M163.2 4.45671C163.049 4.45671 162.904 4.42778 162.766 4.36991C162.633 4.30843 162.515 4.22886 162.414 4.13122C162.313 4.02995 162.233 3.91241 162.175 3.7786C162.117 3.64117 162.088 3.4965 162.088 3.34461V1.1204C162.088 0.968506 162.117 0.82565 162.175 0.691837C162.233 0.554406 162.313 0.436867 162.414 0.339219C162.515 0.237954 162.633 0.158389 162.766 0.100524C162.904 0.0390418 163.049 0.00830078 163.2 0.00830078H166.976C167.128 0.00830078 167.271 0.0390418 167.405 0.100524C167.542 0.158389 167.661 0.237954 167.763 0.339219C167.864 0.436867 167.944 0.554406 168.001 0.691837C168.059 0.82565 168.088 0.968506 168.088 1.1204V2.12401H166.976V1.1204H163.2V3.34461H166.976C167.128 3.34461 167.271 3.37354 167.405 3.4314C167.542 3.48927 167.661 3.56883 167.763 3.6701C167.864 3.77136 167.944 3.89071 168.001 4.02814C168.059 4.16196 168.088 4.30481 168.088 4.45671V6.67549C168.088 6.82738 168.059 6.97205 168.001 7.10948C167.944 7.24329 167.864 7.36083 167.763 7.4621C167.661 7.56336 167.542 7.64292 167.405 7.70079C167.271 7.75866 167.128 7.78759 166.976 7.78759H163.092C162.94 7.78759 162.795 7.75866 162.658 7.70079C162.524 7.64292 162.407 7.56336 162.305 7.4621C162.204 7.36083 162.125 7.24329 162.067 7.10948C162.009 6.97205 161.98 6.82738 161.98 6.67549V5.67731H163.092V6.67549H166.976V4.45671H163.2Z" fill="white"/>
<path d="M253.26 64.8418V117.227L247.62 120.577V52.9636L278.461 79.6134L309.302 52.9636V120.577L303.662 117.227V64.8418L284.389 81.4955V97.9261L278.461 93.3517L272.438 97.9261V81.4955L253.26 64.8418Z" fill="url(#paint10_linear_2773_293)"/>
<path d="M254.187 66.928L254.314 116.326L257.03 114.554V72.7315L268.062 82.609L268.163 101.063L271.542 98.6897V95.482V81.9244L254.187 66.928Z" fill="url(#paint11_linear_2773_293)"/>
<path d="M302.861 66.928L302.735 116.326L300.019 114.554V72.7315L288.987 82.609V101.052L285.507 98.4905V95.482V81.9244L302.861 66.928Z" fill="url(#paint12_linear_2773_293)"/>
<path d="M316.289 64.8413V117.227L310.65 120.577V52.9631L341.491 79.6129L372.332 52.9631V120.577L366.692 117.227V64.8413L347.419 81.495V97.9256L341.491 93.3512L335.468 97.9256V81.495L316.289 64.8413Z" fill="url(#paint13_linear_2773_293)"/>
<path d="M317.141 66.928L317.268 116.326L319.984 114.554V72.7315L331.016 82.609L331.117 101.063L334.496 98.6897V95.482V81.9244L317.141 66.928Z" fill="url(#paint14_linear_2773_293)"/>
<path d="M365.708 66.928L365.581 116.326L362.865 114.554V72.7315L351.833 82.609V101.052L348.353 98.4905V95.482V81.9244L365.708 66.928Z" fill="url(#paint15_linear_2773_293)"/>
<path d="M385.702 118.724L391.331 49.6343H397.696L403.323 118.724H385.702Z" fill="url(#paint16_linear_2773_293)" stroke="white" stroke-width="0.460557"/>
<path d="M390.289 65.3168C392.115 65.6729 396.256 65.2273 398.286 60.9539" stroke="white" stroke-width="0.460557"/>
<path d="M388.817 82.8739C390.643 83.23 397.496 80.1733 399.526 75.8999" stroke="white" stroke-width="0.460557"/>
<path d="M386.827 105.668C388.74 106.043 399.121 99.7773 401.249 95.282" stroke="white" stroke-width="0.460557"/>
<path d="M394.496 47.7921C393.765 47.7921 393.167 47.1751 393.167 46.421V44.9797C393.167 44.2256 393.765 43.6086 394.496 43.6086C395.226 43.6086 395.825 44.2256 395.825 44.9797V46.421C395.824 47.1752 395.226 47.7921 394.496 47.7921Z" fill="#32C7B4"/>
<path d="M391.32 43.7205V47.7885H397.68V43.7205L394.5 41.061L391.32 43.7205Z" stroke="white" stroke-width="0.460557"/>
<path d="M392.369 1.06312V2.02252H391.306V1.06312C391.306 0.917911 391.333 0.781348 391.389 0.653428C391.444 0.522051 391.52 0.409689 391.617 0.316342C391.714 0.219538 391.826 0.143478 391.954 0.088161C392.085 0.029387 392.224 0 392.369 0H395.734C395.88 0 396.016 0.029387 396.144 0.088161C396.275 0.143478 396.388 0.219538 396.481 0.316342C396.578 0.409689 396.654 0.522051 396.709 0.653428C396.768 0.781348 396.798 0.917911 396.798 1.06312V2.42183C396.798 2.56704 396.784 2.69669 396.756 2.81078C396.728 2.92487 396.683 3.02859 396.621 3.12194C396.562 3.21183 396.486 3.29307 396.393 3.36568C396.3 3.43828 396.186 3.50742 396.051 3.57311L392.369 5.30003V6.37352H395.869V5.41931H396.932V7.43664H391.306V5.48154C391.306 5.33633 391.319 5.20668 391.347 5.09259C391.378 4.9785 391.423 4.87651 391.482 4.78662C391.541 4.69673 391.617 4.61549 391.71 4.54288C391.807 4.46682 391.919 4.39768 392.047 4.33545L395.734 2.60334V1.06312H392.369Z" fill="white"/>
<path d="M399.379 5.18594H400.421V5.58007C400.421 5.86011 400.484 6.06582 400.608 6.1972C400.733 6.32858 400.937 6.39426 401.22 6.39426H403.362C403.645 6.39426 403.849 6.32858 403.974 6.1972C404.098 6.06582 404.161 5.86011 404.161 5.58007V5.00443C404.161 4.72093 404.098 4.51522 403.974 4.38731C403.849 4.25939 403.645 4.19543 403.362 4.19543H401.163V3.15824H403.331C403.59 3.14787 403.775 3.07872 403.886 2.9508C404 2.81942 404.057 2.6189 404.057 2.34923V1.86175C404.057 1.57825 403.993 1.37082 403.865 1.23944C403.74 1.10806 403.538 1.04237 403.258 1.04237H401.324C401.044 1.04237 400.842 1.10806 400.717 1.23944C400.593 1.37082 400.53 1.57825 400.53 1.86175V2.25588H399.488V1.80989C399.488 0.603298 400.09 0 401.293 0H403.289C403.901 0 404.354 0.148664 404.648 0.445991C404.945 0.743318 405.094 1.19795 405.094 1.80989V1.94473C405.094 2.36306 405.02 2.70879 404.871 2.98192C404.726 3.25158 404.513 3.45211 404.233 3.58348C404.548 3.67683 404.788 3.86353 404.954 4.14357C405.12 4.42361 405.203 4.79527 405.203 5.25854V5.63193C405.203 6.83507 404.601 7.43664 403.398 7.43664H401.189C399.982 7.43664 399.379 6.83507 399.379 5.63193V5.18594Z" fill="white"/>
<path d="M413.733 2.6552C413.733 3.69239 413.29 4.28359 412.405 4.42879L413.805 7.43664H412.628L411.249 4.46509H408.92V7.43664H407.857V0H411.928C413.131 0 413.733 0.603298 413.733 1.80989V2.6552ZM408.92 3.40198H411.871C412.154 3.40198 412.358 3.33975 412.483 3.21528C412.607 3.09082 412.67 2.88684 412.67 2.60334V1.86175C412.67 1.57825 412.607 1.37427 412.483 1.24981C412.358 1.12535 412.154 1.06312 411.871 1.06312H408.92V3.40198Z" fill="white"/>
<path d="M420.354 6.37352C420.849 6.37352 421.229 6.24041 421.495 5.9742C421.761 5.70799 421.894 5.32769 421.894 4.8333V2.60334C421.894 2.36133 421.86 2.14525 421.791 1.9551C421.722 1.76495 421.62 1.60418 421.485 1.47281C421.353 1.33797 421.193 1.23598 421.002 1.16684C420.812 1.09769 420.596 1.06312 420.354 1.06312H417.637V6.37352H420.354ZM416.574 7.43664V0H420.354C420.752 0 421.11 0.0622313 421.428 0.186694C421.749 0.307699 422.022 0.482292 422.247 0.710474C422.475 0.935198 422.65 1.20832 422.771 1.52985C422.895 1.85138 422.958 2.20921 422.958 2.60334V4.8333C422.958 5.22743 422.895 5.58526 422.771 5.90679C422.65 6.22831 422.475 6.50317 422.247 6.73135C422.022 6.95607 421.749 7.13067 421.428 7.25513C421.11 7.37614 420.752 7.43664 420.354 7.43664H416.574Z" fill="white"/>
<path d="M425.622 3.93094H428.106V4.95257H425.622V3.93094Z" fill="white"/>
<path d="M431.937 1.06312V2.02252H430.874V1.06312C430.874 0.917911 430.902 0.781348 430.957 0.653428C431.013 0.522051 431.089 0.409689 431.186 0.316342C431.282 0.219538 431.395 0.143478 431.523 0.088161C431.654 0.029387 431.792 0 431.937 0H435.303C435.448 0 435.585 0.029387 435.713 0.088161C435.844 0.143478 435.957 0.219538 436.05 0.316342C436.147 0.409689 436.223 0.522051 436.278 0.653428C436.337 0.781348 436.366 0.917911 436.366 1.06312V2.42183C436.366 2.56704 436.352 2.69669 436.325 2.81078C436.297 2.92487 436.252 3.02859 436.19 3.12194C436.131 3.21183 436.055 3.29307 435.962 3.36568C435.868 3.43828 435.754 3.50742 435.619 3.57311L431.937 5.30003V6.37352H435.438V5.41931H436.501V7.43664H430.874V5.48154C430.874 5.33633 430.888 5.20668 430.916 5.09259C430.947 4.9785 430.992 4.87651 431.051 4.78662C431.109 4.69673 431.186 4.61549 431.279 4.54288C431.376 4.46682 431.488 4.39768 431.616 4.33545L435.303 2.60334V1.06312H431.937Z" fill="white"/>
<path d="M444.559 5.63193C444.549 6.23696 444.397 6.68986 444.103 6.99065C443.809 7.28797 443.359 7.43664 442.754 7.43664H440.758C439.551 7.43664 438.948 6.83507 438.948 5.63193V5.18594H439.99V5.58007C439.99 5.86011 440.052 6.06582 440.177 6.1972C440.301 6.32858 440.505 6.39426 440.789 6.39426H442.718C443.002 6.39426 443.205 6.32858 443.33 6.1972C443.454 6.06582 443.517 5.86011 443.517 5.58007V4.57919C443.517 4.29914 443.454 4.09516 443.33 3.96724C443.205 3.83587 443.002 3.77018 442.718 3.77018H439.16V0H444.367V1.06312H440.224V2.73299H442.754C443.363 2.73299 443.816 2.88165 444.113 3.17898C444.41 3.47285 444.559 3.92576 444.559 4.5377V5.63193Z" fill="white"/>
<path d="M446.581 0H452.529V1.06312H450.086V7.43664H449.023V1.06312H446.581V0Z" fill="white"/>
<path d="M461.25 0V7.43664H460.187V4.25247H455.93V7.43664H454.867V0H455.93V3.18935H460.187V0H461.25Z" fill="white"/>
<path d="M468.26 5.09778H469.323V6.37352H472.331V0H473.394V6.37352C473.394 6.51873 473.365 6.65702 473.306 6.7884C473.25 6.91632 473.174 7.02868 473.078 7.12548C472.984 7.22229 472.872 7.29835 472.74 7.35366C472.613 7.40898 472.476 7.43664 472.331 7.43664H469.323C469.178 7.43664 469.039 7.40898 468.908 7.35366C468.78 7.29835 468.668 7.22229 468.571 7.12548C468.478 7.02868 468.402 6.91632 468.343 6.7884C468.287 6.65702 468.26 6.51873 468.26 6.37352V5.09778Z" fill="white"/>
<path d="M479.663 0L482.53 7.43664H481.467L480.809 5.72528H477.453L476.795 7.43664H475.732L478.6 0H479.663ZM477.858 4.66216H480.399L479.134 1.38465L477.858 4.66216Z" fill="white"/>
<path d="M485.931 7.43664H484.868V0H485.931L490.402 5.76677V0H491.465V7.43664H490.402L485.931 1.66987V7.43664Z" fill="white"/>
<path d="M494.435 0H495.498V6.37352H499.746V0H500.809V6.37352C500.809 6.51873 500.781 6.65702 500.726 6.7884C500.671 6.91632 500.594 7.02868 500.498 7.12548C500.401 7.22229 500.287 7.29835 500.155 7.35366C500.027 7.40898 499.891 7.43664 499.746 7.43664H495.498C495.353 7.43664 495.215 7.40898 495.084 7.35366C494.956 7.29835 494.843 7.22229 494.746 7.12548C494.65 7.02868 494.574 6.91632 494.518 6.7884C494.463 6.65702 494.435 6.51873 494.435 6.37352V0Z" fill="white"/>
<path d="M507.078 0L509.945 7.43664H508.882L508.224 5.72528H504.868L504.21 7.43664H503.147L506.014 0H507.078ZM505.273 4.66216H507.814L506.549 1.38465L505.273 4.66216Z" fill="white"/>
<path d="M518.159 2.6552C518.159 3.69239 517.716 4.28359 516.831 4.42879L518.232 7.43664H517.054L515.675 4.46509H513.346V7.43664H512.283V0H516.354C517.557 0 518.159 0.603298 518.159 1.80989V2.6552ZM513.346 3.40198H516.297C516.581 3.40198 516.785 3.33975 516.909 3.21528C517.034 3.09082 517.096 2.88684 517.096 2.60334V1.86175C517.096 1.57825 517.034 1.37427 516.909 1.24981C516.785 1.12535 516.581 1.06312 516.297 1.06312H513.346V3.40198Z" fill="white"/>
<path d="M521.492 0L523.655 3.47458L525.823 0H527.057L524.189 4.48584V7.43664H523.126V4.48584L520.258 0H521.492Z" fill="white"/>
<path d="M534.497 1.06312V2.02252H533.434V1.06312C533.434 0.917911 533.461 0.781348 533.517 0.653428C533.572 0.522051 533.648 0.409689 533.745 0.316342C533.842 0.219538 533.954 0.143478 534.082 0.088161C534.213 0.029387 534.352 0 534.497 0H537.862C538.008 0 538.144 0.029387 538.272 0.088161C538.403 0.143478 538.516 0.219538 538.609 0.316342C538.706 0.409689 538.782 0.522051 538.837 0.653428C538.896 0.781348 538.926 0.917911 538.926 1.06312V2.42183C538.926 2.56704 538.912 2.69669 538.884 2.81078C538.856 2.92487 538.811 3.02859 538.749 3.12194C538.69 3.21183 538.614 3.29307 538.521 3.36568C538.428 3.43828 538.314 3.50742 538.179 3.57311L534.497 5.30003V6.37352H537.997V5.41931H539.06V7.43664H533.434V5.48154C533.434 5.33633 533.447 5.20668 533.475 5.09259C533.506 4.9785 533.551 4.87651 533.61 4.78662C533.669 4.69673 533.745 4.61549 533.838 4.54288C533.935 4.46682 534.047 4.39768 534.175 4.33545L537.862 2.60334V1.06312H534.497Z" fill="white"/>
<path d="M547.777 6.37352C547.777 6.51873 547.749 6.65702 547.694 6.7884C547.639 6.91632 547.563 7.02868 547.466 7.12548C547.369 7.22229 547.255 7.29835 547.123 7.35366C546.996 7.40898 546.859 7.43664 546.714 7.43664H542.995C542.85 7.43664 542.712 7.40898 542.581 7.35366C542.453 7.29835 542.34 7.22229 542.243 7.12548C542.147 7.02868 542.071 6.91632 542.015 6.7884C541.96 6.65702 541.932 6.51873 541.932 6.37352V1.06312C541.932 0.917911 541.96 0.781348 542.015 0.653428C542.071 0.522051 542.147 0.409689 542.243 0.316342C542.34 0.219538 542.453 0.143478 542.581 0.088161C542.712 0.029387 542.85 0 542.995 0H546.714C546.859 0 546.996 0.029387 547.123 0.088161C547.255 0.143478 547.369 0.219538 547.466 0.316342C547.563 0.409689 547.639 0.522051 547.694 0.653428C547.749 0.781348 547.777 0.917911 547.777 1.06312V6.37352ZM542.995 1.06312V6.37352H546.714V1.06312H542.995Z" fill="white"/>
<path d="M551.712 1.06312V2.02252H550.649V1.06312C550.649 0.917911 550.676 0.781348 550.732 0.653428C550.787 0.522051 550.863 0.409689 550.96 0.316342C551.057 0.219538 551.169 0.143478 551.297 0.088161C551.428 0.029387 551.567 0 551.712 0H555.078C555.223 0 555.359 0.029387 555.487 0.088161C555.619 0.143478 555.731 0.219538 555.824 0.316342C555.921 0.409689 555.997 0.522051 556.053 0.653428C556.111 0.781348 556.141 0.917911 556.141 1.06312V2.42183C556.141 2.56704 556.127 2.69669 556.099 2.81078C556.072 2.92487 556.027 3.02859 555.964 3.12194C555.906 3.21183 555.83 3.29307 555.736 3.36568C555.643 3.43828 555.529 3.50742 555.394 3.57311L551.712 5.30003V6.37352H555.212V5.41931H556.276V7.43664H550.649V5.48154C550.649 5.33633 550.663 5.20668 550.69 5.09259C550.721 4.9785 550.766 4.87651 550.825 4.78662C550.884 4.69673 550.96 4.61549 551.053 4.54288C551.15 4.46682 551.262 4.39768 551.39 4.33545L555.078 2.60334V1.06312H551.712Z" fill="white"/>
<path d="M559.148 1.06312C559.148 0.917911 559.175 0.781348 559.231 0.653428C559.286 0.522051 559.362 0.409689 559.459 0.316342C559.556 0.219538 559.668 0.143478 559.796 0.088161C559.927 0.029387 560.065 0 560.211 0H563.607C563.753 0 563.889 0.029387 564.017 0.088161C564.149 0.143478 564.263 0.219538 564.359 0.316342C564.456 0.409689 564.532 0.522051 564.588 0.653428C564.643 0.781348 564.671 0.917911 564.671 1.06312V2.02252H563.607V1.06312H560.211V3.18935H563.607C563.753 3.18935 563.889 3.21701 564.017 3.27233C564.149 3.32764 564.263 3.40371 564.359 3.50051C564.456 3.59731 564.532 3.7114 564.588 3.84278C564.643 3.9707 564.671 4.10726 564.671 4.25247V6.37352C564.671 6.51873 564.643 6.65702 564.588 6.7884C564.532 6.91632 564.456 7.02868 564.359 7.12548C564.263 7.22229 564.149 7.29835 564.017 7.35366C563.889 7.40898 563.753 7.43664 563.607 7.43664H560.211C560.065 7.43664 559.927 7.40898 559.796 7.35366C559.668 7.29835 559.556 7.22229 559.459 7.12548C559.362 7.02868 559.286 6.91632 559.231 6.7884C559.175 6.65702 559.148 6.51873 559.148 6.37352V1.06312ZM560.211 4.25247V6.37352H563.607V4.25247H560.211Z" fill="white"/>
<path d="M564.666 136.755L446.646 136.759V141.31H564.666V136.755Z" fill="url(#paint17_linear_2773_293)"/>
<path d="M0 136.755L118.021 136.759V141.31H0V136.755Z" fill="url(#paint18_linear_2773_293)"/>
<mask id="path-29-inside-1_2773_293" fill="white">
<path d="M139.568 133.468L143.697 144.599H142.166L141.218 142.037H136.388L135.44 144.599H133.91L138.038 133.468H139.568ZM136.97 140.446H140.628L138.807 135.541L136.97 140.446Z"/>
<path d="M151.649 133.468H159.45V135.059H153.179V138.242H158.532V139.833H153.179V143.008H159.45V144.599H151.649V133.468Z"/>
<path d="M167.857 135.059C167.857 134.842 167.897 134.638 167.977 134.446C168.057 134.25 168.166 134.081 168.305 133.942C168.445 133.797 168.606 133.683 168.791 133.6C168.98 133.512 169.179 133.468 169.388 133.468H175.196C175.405 133.468 175.601 133.512 175.786 133.6C175.975 133.683 176.139 133.797 176.278 133.942C176.418 134.081 176.527 134.25 176.607 134.446C176.686 134.638 176.726 134.842 176.726 135.059V136.495H175.196V135.059H169.388V143.008H175.196V140.307H172.292V138.715H176.726V143.008C176.726 143.225 176.686 143.432 176.607 143.629C176.527 143.82 176.418 143.988 176.278 144.133C176.139 144.278 175.975 144.392 175.786 144.475C175.601 144.558 175.405 144.599 175.196 144.599H169.388C169.179 144.599 168.98 144.558 168.791 144.475C168.606 144.392 168.445 144.278 168.305 144.133C168.166 143.988 168.057 143.82 167.977 143.629C167.897 143.432 167.857 143.225 167.857 143.008V135.059Z"/>
<path d="M187.12 133.468V144.599H185.589V133.468H187.12Z"/>
<path d="M197.52 139.833C197.311 139.833 197.112 139.792 196.923 139.709C196.739 139.621 196.577 139.507 196.438 139.367C196.298 139.222 196.189 139.054 196.109 138.863C196.03 138.666 195.99 138.459 195.99 138.242V135.059C195.99 134.842 196.03 134.638 196.109 134.446C196.189 134.25 196.298 134.081 196.438 133.942C196.577 133.797 196.739 133.683 196.923 133.6C197.112 133.512 197.311 133.468 197.52 133.468H202.716C202.925 133.468 203.122 133.512 203.306 133.6C203.495 133.683 203.659 133.797 203.799 133.942C203.938 134.081 204.047 134.25 204.127 134.446C204.207 134.638 204.247 134.842 204.247 135.059V136.495H202.716V135.059H197.52V138.242H202.716C202.925 138.242 203.122 138.283 203.306 138.366C203.495 138.449 203.659 138.563 203.799 138.708C203.938 138.852 204.047 139.023 204.127 139.22C204.207 139.411 204.247 139.616 204.247 139.833V143.008C204.247 143.225 204.207 143.432 204.127 143.629C204.047 143.82 203.938 143.988 203.799 144.133C203.659 144.278 203.495 144.392 203.306 144.475C203.122 144.558 202.925 144.599 202.716 144.599H197.371C197.162 144.599 196.963 144.558 196.774 144.475C196.59 144.392 196.428 144.278 196.288 144.133C196.149 143.988 196.04 143.82 195.96 143.629C195.88 143.432 195.841 143.225 195.841 143.008V141.58H197.371V143.008H202.716V139.833H197.52Z"/>
<path d="M232.999 143.008C232.999 143.225 232.959 143.432 232.879 143.629C232.799 143.82 232.69 143.988 232.551 144.133C232.411 144.278 232.247 144.392 232.058 144.475C231.874 144.558 231.677 144.599 231.468 144.599H225.354C225.145 144.599 224.946 144.558 224.757 144.475C224.573 144.392 224.411 144.278 224.272 144.133C224.132 143.988 224.023 143.82 223.943 143.629C223.863 143.432 223.824 143.225 223.824 143.008V135.059C223.824 134.842 223.863 134.638 223.943 134.446C224.023 134.25 224.132 134.081 224.272 133.942C224.411 133.797 224.573 133.683 224.757 133.6C224.946 133.512 225.145 133.468 225.354 133.468H231.468C231.677 133.468 231.874 133.512 232.058 133.6C232.247 133.683 232.411 133.797 232.551 133.942C232.69 134.081 232.799 134.25 232.879 134.446C232.959 134.638 232.999 134.842 232.999 135.059V143.008ZM225.354 135.059V143.008H231.468V135.059H225.354Z"/>
<path d="M241.869 133.468H249.67V135.059H243.399V138.242H248.752V139.833H243.399V144.599H241.869V133.468Z"/>
<path d="M273.368 133.468L277.496 144.599H275.966L275.018 142.037H270.188L269.24 144.599H267.709L271.838 133.468H273.368ZM270.77 140.446H274.428L272.607 135.541L270.77 140.446Z"/>
<path d="M286.979 139.833C286.77 139.833 286.571 139.792 286.382 139.709C286.198 139.621 286.036 139.507 285.896 139.367C285.757 139.222 285.648 139.054 285.568 138.863C285.488 138.666 285.449 138.459 285.449 138.242V135.059C285.449 134.842 285.488 134.638 285.568 134.446C285.648 134.25 285.757 134.081 285.896 133.942C286.036 133.797 286.198 133.683 286.382 133.6C286.571 133.512 286.77 133.468 286.979 133.468H292.175C292.384 133.468 292.58 133.512 292.765 133.6C292.954 133.683 293.118 133.797 293.257 133.942C293.397 134.081 293.506 134.25 293.586 134.446C293.665 134.638 293.705 134.842 293.705 135.059V136.495H292.175V135.059H286.979V138.242H292.175C292.384 138.242 292.58 138.283 292.765 138.366C292.954 138.449 293.118 138.563 293.257 138.708C293.397 138.852 293.506 139.023 293.586 139.22C293.665 139.411 293.705 139.616 293.705 139.833V143.008C293.705 143.225 293.665 143.432 293.586 143.629C293.506 143.82 293.397 143.988 293.257 144.133C293.118 144.278 292.954 144.392 292.765 144.475C292.58 144.558 292.384 144.599 292.175 144.599H286.83C286.621 144.599 286.422 144.558 286.232 144.475C286.048 144.392 285.887 144.278 285.747 144.133C285.608 143.988 285.498 143.82 285.419 143.629C285.339 143.432 285.299 143.225 285.299 143.008V141.58H286.83V143.008H292.175V139.833H286.979Z"/>
<path d="M302.583 135.059C302.583 134.842 302.623 134.638 302.702 134.446C302.782 134.25 302.892 134.081 303.031 133.942C303.17 133.797 303.332 133.683 303.516 133.6C303.705 133.512 303.904 133.468 304.113 133.468H309.921C310.13 133.468 310.327 133.512 310.511 133.6C310.7 133.683 310.865 133.797 311.004 133.942C311.143 134.081 311.253 134.25 311.332 134.446C311.412 134.638 311.452 134.842 311.452 135.059V136.495H309.921V135.059H304.113V143.008H309.921V141.58H311.452V143.008C311.452 143.225 311.412 143.432 311.332 143.629C311.253 143.82 311.143 143.988 311.004 144.133C310.865 144.278 310.7 144.392 310.511 144.475C310.327 144.558 310.13 144.599 309.921 144.599H304.113C303.904 144.599 303.705 144.558 303.516 144.475C303.332 144.392 303.17 144.278 303.031 144.133C302.892 143.988 302.782 143.82 302.702 143.629C302.623 143.432 302.583 143.225 302.583 143.008V135.059Z"/>
<path d="M320.016 133.468H327.817V135.059H321.546V138.242H326.899V139.833H321.546V143.008H327.817V144.599H320.016V133.468Z"/>
<path d="M337.755 144.599H336.225V133.468H337.755L344.19 142.1V133.468H345.721V144.599H344.19L337.755 135.968V144.599Z"/>
<path d="M360.026 143.008C360.738 143.008 361.285 142.808 361.668 142.41C362.051 142.012 362.243 141.442 362.243 140.702V137.365C362.243 137.003 362.193 136.679 362.094 136.395C361.994 136.11 361.847 135.869 361.653 135.673C361.464 135.471 361.233 135.318 360.959 135.215C360.685 135.111 360.374 135.059 360.026 135.059H356.114V143.008H360.026ZM354.584 144.599V133.468H360.026C360.598 133.468 361.113 133.561 361.571 133.748C362.034 133.929 362.427 134.19 362.751 134.532C363.079 134.868 363.331 135.277 363.505 135.758C363.684 136.239 363.773 136.775 363.773 137.365V140.702C363.773 141.292 363.684 141.828 363.505 142.309C363.331 142.79 363.079 143.202 362.751 143.543C362.427 143.88 362.034 144.141 361.571 144.327C361.113 144.508 360.598 144.599 360.026 144.599H354.584Z"/>
<path d="M372.345 133.468H380.146V135.059H373.876V138.242H379.228V139.833H373.876V143.008H380.146V144.599H372.345V133.468Z"/>
<path d="M390.084 144.599H388.554V133.468H390.084L396.519 142.1V133.468H398.05V144.599H396.519L390.084 135.968V144.599Z"/>
<path d="M406.913 135.059C406.913 134.842 406.953 134.638 407.032 134.446C407.112 134.25 407.221 134.081 407.361 133.942C407.5 133.797 407.662 133.683 407.846 133.6C408.035 133.512 408.234 133.468 408.443 133.468H414.251C414.46 133.468 414.657 133.512 414.841 133.6C415.03 133.683 415.194 133.797 415.334 133.942C415.473 134.081 415.582 134.25 415.662 134.446C415.742 134.638 415.782 134.842 415.782 135.059V136.495H414.251V135.059H408.443V143.008H414.251V141.58H415.782V143.008C415.782 143.225 415.742 143.432 415.662 143.629C415.582 143.82 415.473 143.988 415.334 144.133C415.194 144.278 415.03 144.392 414.841 144.475C414.657 144.558 414.46 144.599 414.251 144.599H408.443C408.234 144.599 408.035 144.558 407.846 144.475C407.662 144.392 407.5 144.278 407.361 144.133C407.221 143.988 407.112 143.82 407.032 143.629C406.953 143.432 406.913 143.225 406.913 143.008V135.059Z"/>
<path d="M424.346 133.468H432.147V135.059H425.876V138.242H431.229V139.833H425.876V143.008H432.147V144.599H424.346V133.468Z"/>
</mask>
<path d="M139.568 133.468L143.697 144.599H142.166L141.218 142.037H136.388L135.44 144.599H133.91L138.038 133.468H139.568ZM136.97 140.446H140.628L138.807 135.541L136.97 140.446Z" fill="white"/>
<path d="M151.649 133.468H159.45V135.059H153.179V138.242H158.532V139.833H153.179V143.008H159.45V144.599H151.649V133.468Z" fill="white"/>
<path d="M167.857 135.059C167.857 134.842 167.897 134.638 167.977 134.446C168.057 134.25 168.166 134.081 168.305 133.942C168.445 133.797 168.606 133.683 168.791 133.6C168.98 133.512 169.179 133.468 169.388 133.468H175.196C175.405 133.468 175.601 133.512 175.786 133.6C175.975 133.683 176.139 133.797 176.278 133.942C176.418 134.081 176.527 134.25 176.607 134.446C176.686 134.638 176.726 134.842 176.726 135.059V136.495H175.196V135.059H169.388V143.008H175.196V140.307H172.292V138.715H176.726V143.008C176.726 143.225 176.686 143.432 176.607 143.629C176.527 143.82 176.418 143.988 176.278 144.133C176.139 144.278 175.975 144.392 175.786 144.475C175.601 144.558 175.405 144.599 175.196 144.599H169.388C169.179 144.599 168.98 144.558 168.791 144.475C168.606 144.392 168.445 144.278 168.305 144.133C168.166 143.988 168.057 143.82 167.977 143.629C167.897 143.432 167.857 143.225 167.857 143.008V135.059Z" fill="white"/>
<path d="M187.12 133.468V144.599H185.589V133.468H187.12Z" fill="white"/>
<path d="M197.52 139.833C197.311 139.833 197.112 139.792 196.923 139.709C196.739 139.621 196.577 139.507 196.438 139.367C196.298 139.222 196.189 139.054 196.109 138.863C196.03 138.666 195.99 138.459 195.99 138.242V135.059C195.99 134.842 196.03 134.638 196.109 134.446C196.189 134.25 196.298 134.081 196.438 133.942C196.577 133.797 196.739 133.683 196.923 133.6C197.112 133.512 197.311 133.468 197.52 133.468H202.716C202.925 133.468 203.122 133.512 203.306 133.6C203.495 133.683 203.659 133.797 203.799 133.942C203.938 134.081 204.047 134.25 204.127 134.446C204.207 134.638 204.247 134.842 204.247 135.059V136.495H202.716V135.059H197.52V138.242H202.716C202.925 138.242 203.122 138.283 203.306 138.366C203.495 138.449 203.659 138.563 203.799 138.708C203.938 138.852 204.047 139.023 204.127 139.22C204.207 139.411 204.247 139.616 204.247 139.833V143.008C204.247 143.225 204.207 143.432 204.127 143.629C204.047 143.82 203.938 143.988 203.799 144.133C203.659 144.278 203.495 144.392 203.306 144.475C203.122 144.558 202.925 144.599 202.716 144.599H197.371C197.162 144.599 196.963 144.558 196.774 144.475C196.59 144.392 196.428 144.278 196.288 144.133C196.149 143.988 196.04 143.82 195.96 143.629C195.88 143.432 195.841 143.225 195.841 143.008V141.58H197.371V143.008H202.716V139.833H197.52Z" fill="white"/>
<path d="M232.999 143.008C232.999 143.225 232.959 143.432 232.879 143.629C232.799 143.82 232.69 143.988 232.551 144.133C232.411 144.278 232.247 144.392 232.058 144.475C231.874 144.558 231.677 144.599 231.468 144.599H225.354C225.145 144.599 224.946 144.558 224.757 144.475C224.573 144.392 224.411 144.278 224.272 144.133C224.132 143.988 224.023 143.82 223.943 143.629C223.863 143.432 223.824 143.225 223.824 143.008V135.059C223.824 134.842 223.863 134.638 223.943 134.446C224.023 134.25 224.132 134.081 224.272 133.942C224.411 133.797 224.573 133.683 224.757 133.6C224.946 133.512 225.145 133.468 225.354 133.468H231.468C231.677 133.468 231.874 133.512 232.058 133.6C232.247 133.683 232.411 133.797 232.551 133.942C232.69 134.081 232.799 134.25 232.879 134.446C232.959 134.638 232.999 134.842 232.999 135.059V143.008ZM225.354 135.059V143.008H231.468V135.059H225.354Z" fill="white"/>
<path d="M241.869 133.468H249.67V135.059H243.399V138.242H248.752V139.833H243.399V144.599H241.869V133.468Z" fill="white"/>
<path d="M273.368 133.468L277.496 144.599H275.966L275.018 142.037H270.188L269.24 144.599H267.709L271.838 133.468H273.368ZM270.77 140.446H274.428L272.607 135.541L270.77 140.446Z" fill="white"/>
<path d="M286.979 139.833C286.77 139.833 286.571 139.792 286.382 139.709C286.198 139.621 286.036 139.507 285.896 139.367C285.757 139.222 285.648 139.054 285.568 138.863C285.488 138.666 285.449 138.459 285.449 138.242V135.059C285.449 134.842 285.488 134.638 285.568 134.446C285.648 134.25 285.757 134.081 285.896 133.942C286.036 133.797 286.198 133.683 286.382 133.6C286.571 133.512 286.77 133.468 286.979 133.468H292.175C292.384 133.468 292.58 133.512 292.765 133.6C292.954 133.683 293.118 133.797 293.257 133.942C293.397 134.081 293.506 134.25 293.586 134.446C293.665 134.638 293.705 134.842 293.705 135.059V136.495H292.175V135.059H286.979V138.242H292.175C292.384 138.242 292.58 138.283 292.765 138.366C292.954 138.449 293.118 138.563 293.257 138.708C293.397 138.852 293.506 139.023 293.586 139.22C293.665 139.411 293.705 139.616 293.705 139.833V143.008C293.705 143.225 293.665 143.432 293.586 143.629C293.506 143.82 293.397 143.988 293.257 144.133C293.118 144.278 292.954 144.392 292.765 144.475C292.58 144.558 292.384 144.599 292.175 144.599H286.83C286.621 144.599 286.422 144.558 286.232 144.475C286.048 144.392 285.887 144.278 285.747 144.133C285.608 143.988 285.498 143.82 285.419 143.629C285.339 143.432 285.299 143.225 285.299 143.008V141.58H286.83V143.008H292.175V139.833H286.979Z" fill="white"/>
<path d="M302.583 135.059C302.583 134.842 302.623 134.638 302.702 134.446C302.782 134.25 302.892 134.081 303.031 133.942C303.17 133.797 303.332 133.683 303.516 133.6C303.705 133.512 303.904 133.468 304.113 133.468H309.921C310.13 133.468 310.327 133.512 310.511 133.6C310.7 133.683 310.865 133.797 311.004 133.942C311.143 134.081 311.253 134.25 311.332 134.446C311.412 134.638 311.452 134.842 311.452 135.059V136.495H309.921V135.059H304.113V143.008H309.921V141.58H311.452V143.008C311.452 143.225 311.412 143.432 311.332 143.629C311.253 143.82 311.143 143.988 311.004 144.133C310.865 144.278 310.7 144.392 310.511 144.475C310.327 144.558 310.13 144.599 309.921 144.599H304.113C303.904 144.599 303.705 144.558 303.516 144.475C303.332 144.392 303.17 144.278 303.031 144.133C302.892 143.988 302.782 143.82 302.702 143.629C302.623 143.432 302.583 143.225 302.583 143.008V135.059Z" fill="white"/>
<path d="M320.016 133.468H327.817V135.059H321.546V138.242H326.899V139.833H321.546V143.008H327.817V144.599H320.016V133.468Z" fill="white"/>
<path d="M337.755 144.599H336.225V133.468H337.755L344.19 142.1V133.468H345.721V144.599H344.19L337.755 135.968V144.599Z" fill="white"/>
<path d="M360.026 143.008C360.738 143.008 361.285 142.808 361.668 142.41C362.051 142.012 362.243 141.442 362.243 140.702V137.365C362.243 137.003 362.193 136.679 362.094 136.395C361.994 136.11 361.847 135.869 361.653 135.673C361.464 135.471 361.233 135.318 360.959 135.215C360.685 135.111 360.374 135.059 360.026 135.059H356.114V143.008H360.026ZM354.584 144.599V133.468H360.026C360.598 133.468 361.113 133.561 361.571 133.748C362.034 133.929 362.427 134.19 362.751 134.532C363.079 134.868 363.331 135.277 363.505 135.758C363.684 136.239 363.773 136.775 363.773 137.365V140.702C363.773 141.292 363.684 141.828 363.505 142.309C363.331 142.79 363.079 143.202 362.751 143.543C362.427 143.88 362.034 144.141 361.571 144.327C361.113 144.508 360.598 144.599 360.026 144.599H354.584Z" fill="white"/>
<path d="M372.345 133.468H380.146V135.059H373.876V138.242H379.228V139.833H373.876V143.008H380.146V144.599H372.345V133.468Z" fill="white"/>
<path d="M390.084 144.599H388.554V133.468H390.084L396.519 142.1V133.468H398.05V144.599H396.519L390.084 135.968V144.599Z" fill="white"/>
<path d="M406.913 135.059C406.913 134.842 406.953 134.638 407.032 134.446C407.112 134.25 407.221 134.081 407.361 133.942C407.5 133.797 407.662 133.683 407.846 133.6C408.035 133.512 408.234 133.468 408.443 133.468H414.251C414.46 133.468 414.657 133.512 414.841 133.6C415.03 133.683 415.194 133.797 415.334 133.942C415.473 134.081 415.582 134.25 415.662 134.446C415.742 134.638 415.782 134.842 415.782 135.059V136.495H414.251V135.059H408.443V143.008H414.251V141.58H415.782V143.008C415.782 143.225 415.742 143.432 415.662 143.629C415.582 143.82 415.473 143.988 415.334 144.133C415.194 144.278 415.03 144.392 414.841 144.475C414.657 144.558 414.46 144.599 414.251 144.599H408.443C408.234 144.599 408.035 144.558 407.846 144.475C407.662 144.392 407.5 144.278 407.361 144.133C407.221 143.988 407.112 143.82 407.032 143.629C406.953 143.432 406.913 143.225 406.913 143.008V135.059Z" fill="white"/>
<path d="M424.346 133.468H432.147V135.059H425.876V138.242H431.229V139.833H425.876V143.008H432.147V144.599H424.346V133.468Z" fill="white"/>
<path d="M139.568 133.468L143.697 144.599H142.166L141.218 142.037H136.388L135.44 144.599H133.91L138.038 133.468H139.568ZM136.97 140.446H140.628L138.807 135.541L136.97 140.446Z" stroke="#32C7B4" stroke-width="0.397412" mask="url(#path-29-inside-1_2773_293)"/>
<path d="M151.649 133.468H159.45V135.059H153.179V138.242H158.532V139.833H153.179V143.008H159.45V144.599H151.649V133.468Z" stroke="#32C7B4" stroke-width="0.397412" mask="url(#path-29-inside-1_2773_293)"/>
<path d="M167.857 135.059C167.857 134.842 167.897 134.638 167.977 134.446C168.057 134.25 168.166 134.081 168.305 133.942C168.445 133.797 168.606 133.683 168.791 133.6C168.98 133.512 169.179 133.468 169.388 133.468H175.196C175.405 133.468 175.601 133.512 175.786 133.6C175.975 133.683 176.139 133.797 176.278 133.942C176.418 134.081 176.527 134.25 176.607 134.446C176.686 134.638 176.726 134.842 176.726 135.059V136.495H175.196V135.059H169.388V143.008H175.196V140.307H172.292V138.715H176.726V143.008C176.726 143.225 176.686 143.432 176.607 143.629C176.527 143.82 176.418 143.988 176.278 144.133C176.139 144.278 175.975 144.392 175.786 144.475C175.601 144.558 175.405 144.599 175.196 144.599H169.388C169.179 144.599 168.98 144.558 168.791 144.475C168.606 144.392 168.445 144.278 168.305 144.133C168.166 143.988 168.057 143.82 167.977 143.629C167.897 143.432 167.857 143.225 167.857 143.008V135.059Z" stroke="#32C7B4" stroke-width="0.397412" mask="url(#path-29-inside-1_2773_293)"/>
<path d="M187.12 133.468V144.599H185.589V133.468H187.12Z" stroke="#32C7B4" stroke-width="0.397412" mask="url(#path-29-inside-1_2773_293)"/>
<path d="M197.52 139.833C197.311 139.833 197.112 139.792 196.923 139.709C196.739 139.621 196.577 139.507 196.438 139.367C196.298 139.222 196.189 139.054 196.109 138.863C196.03 138.666 195.99 138.459 195.99 138.242V135.059C195.99 134.842 196.03 134.638 196.109 134.446C196.189 134.25 196.298 134.081 196.438 133.942C196.577 133.797 196.739 133.683 196.923 133.6C197.112 133.512 197.311 133.468 197.52 133.468H202.716C202.925 133.468 203.122 133.512 203.306 133.6C203.495 133.683 203.659 133.797 203.799 133.942C203.938 134.081 204.047 134.25 204.127 134.446C204.207 134.638 204.247 134.842 204.247 135.059V136.495H202.716V135.059H197.52V138.242H202.716C202.925 138.242 203.122 138.283 203.306 138.366C203.495 138.449 203.659 138.563 203.799 138.708C203.938 138.852 204.047 139.023 204.127 139.22C204.207 139.411 204.247 139.616 204.247 139.833V143.008C204.247 143.225 204.207 143.432 204.127 143.629C204.047 143.82 203.938 143.988 203.799 144.133C203.659 144.278 203.495 144.392 203.306 144.475C203.122 144.558 202.925 144.599 202.716 144.599H197.371C197.162 144.599 196.963 144.558 196.774 144.475C196.59 144.392 196.428 144.278 196.288 144.133C196.149 143.988 196.04 143.82 195.96 143.629C195.88 143.432 195.841 143.225 195.841 143.008V141.58H197.371V143.008H202.716V139.833H197.52Z" stroke="#32C7B4" stroke-width="0.397412" mask="url(#path-29-inside-1_2773_293)"/>
<path d="M232.999 143.008C232.999 143.225 232.959 143.432 232.879 143.629C232.799 143.82 232.69 143.988 232.551 144.133C232.411 144.278 232.247 144.392 232.058 144.475C231.874 144.558 231.677 144.599 231.468 144.599H225.354C225.145 144.599 224.946 144.558 224.757 144.475C224.573 144.392 224.411 144.278 224.272 144.133C224.132 143.988 224.023 143.82 223.943 143.629C223.863 143.432 223.824 143.225 223.824 143.008V135.059C223.824 134.842 223.863 134.638 223.943 134.446C224.023 134.25 224.132 134.081 224.272 133.942C224.411 133.797 224.573 133.683 224.757 133.6C224.946 133.512 225.145 133.468 225.354 133.468H231.468C231.677 133.468 231.874 133.512 232.058 133.6C232.247 133.683 232.411 133.797 232.551 133.942C232.69 134.081 232.799 134.25 232.879 134.446C232.959 134.638 232.999 134.842 232.999 135.059V143.008ZM225.354 135.059V143.008H231.468V135.059H225.354Z" stroke="#32C7B4" stroke-width="0.397412" mask="url(#path-29-inside-1_2773_293)"/>
<path d="M241.869 133.468H249.67V135.059H243.399V138.242H248.752V139.833H243.399V144.599H241.869V133.468Z" stroke="#32C7B4" stroke-width="0.397412" mask="url(#path-29-inside-1_2773_293)"/>
<path d="M273.368 133.468L277.496 144.599H275.966L275.018 142.037H270.188L269.24 144.599H267.709L271.838 133.468H273.368ZM270.77 140.446H274.428L272.607 135.541L270.77 140.446Z" stroke="#32C7B4" stroke-width="0.397412" mask="url(#path-29-inside-1_2773_293)"/>
<path d="M286.979 139.833C286.77 139.833 286.571 139.792 286.382 139.709C286.198 139.621 286.036 139.507 285.896 139.367C285.757 139.222 285.648 139.054 285.568 138.863C285.488 138.666 285.449 138.459 285.449 138.242V135.059C285.449 134.842 285.488 134.638 285.568 134.446C285.648 134.25 285.757 134.081 285.896 133.942C286.036 133.797 286.198 133.683 286.382 133.6C286.571 133.512 286.77 133.468 286.979 133.468H292.175C292.384 133.468 292.58 133.512 292.765 133.6C292.954 133.683 293.118 133.797 293.257 133.942C293.397 134.081 293.506 134.25 293.586 134.446C293.665 134.638 293.705 134.842 293.705 135.059V136.495H292.175V135.059H286.979V138.242H292.175C292.384 138.242 292.58 138.283 292.765 138.366C292.954 138.449 293.118 138.563 293.257 138.708C293.397 138.852 293.506 139.023 293.586 139.22C293.665 139.411 293.705 139.616 293.705 139.833V143.008C293.705 143.225 293.665 143.432 293.586 143.629C293.506 143.82 293.397 143.988 293.257 144.133C293.118 144.278 292.954 144.392 292.765 144.475C292.58 144.558 292.384 144.599 292.175 144.599H286.83C286.621 144.599 286.422 144.558 286.232 144.475C286.048 144.392 285.887 144.278 285.747 144.133C285.608 143.988 285.498 143.82 285.419 143.629C285.339 143.432 285.299 143.225 285.299 143.008V141.58H286.83V143.008H292.175V139.833H286.979Z" stroke="#32C7B4" stroke-width="0.397412" mask="url(#path-29-inside-1_2773_293)"/>
<path d="M302.583 135.059C302.583 134.842 302.623 134.638 302.702 134.446C302.782 134.25 302.892 134.081 303.031 133.942C303.17 133.797 303.332 133.683 303.516 133.6C303.705 133.512 303.904 133.468 304.113 133.468H309.921C310.13 133.468 310.327 133.512 310.511 133.6C310.7 133.683 310.865 133.797 311.004 133.942C311.143 134.081 311.253 134.25 311.332 134.446C311.412 134.638 311.452 134.842 311.452 135.059V136.495H309.921V135.059H304.113V143.008H309.921V141.58H311.452V143.008C311.452 143.225 311.412 143.432 311.332 143.629C311.253 143.82 311.143 143.988 311.004 144.133C310.865 144.278 310.7 144.392 310.511 144.475C310.327 144.558 310.13 144.599 309.921 144.599H304.113C303.904 144.599 303.705 144.558 303.516 144.475C303.332 144.392 303.17 144.278 303.031 144.133C302.892 143.988 302.782 143.82 302.702 143.629C302.623 143.432 302.583 143.225 302.583 143.008V135.059Z" stroke="#32C7B4" stroke-width="0.397412" mask="url(#path-29-inside-1_2773_293)"/>
<path d="M320.016 133.468H327.817V135.059H321.546V138.242H326.899V139.833H321.546V143.008H327.817V144.599H320.016V133.468Z" stroke="#32C7B4" stroke-width="0.397412" mask="url(#path-29-inside-1_2773_293)"/>
<path d="M337.755 144.599H336.225V133.468H337.755L344.19 142.1V133.468H345.721V144.599H344.19L337.755 135.968V144.599Z" stroke="#32C7B4" stroke-width="0.397412" mask="url(#path-29-inside-1_2773_293)"/>
<path d="M360.026 143.008C360.738 143.008 361.285 142.808 361.668 142.41C362.051 142.012 362.243 141.442 362.243 140.702V137.365C362.243 137.003 362.193 136.679 362.094 136.395C361.994 136.11 361.847 135.869 361.653 135.673C361.464 135.471 361.233 135.318 360.959 135.215C360.685 135.111 360.374 135.059 360.026 135.059H356.114V143.008H360.026ZM354.584 144.599V133.468H360.026C360.598 133.468 361.113 133.561 361.571 133.748C362.034 133.929 362.427 134.19 362.751 134.532C363.079 134.868 363.331 135.277 363.505 135.758C363.684 136.239 363.773 136.775 363.773 137.365V140.702C363.773 141.292 363.684 141.828 363.505 142.309C363.331 142.79 363.079 143.202 362.751 143.543C362.427 143.88 362.034 144.141 361.571 144.327C361.113 144.508 360.598 144.599 360.026 144.599H354.584Z" stroke="#32C7B4" stroke-width="0.397412" mask="url(#path-29-inside-1_2773_293)"/>
<path d="M372.345 133.468H380.146V135.059H373.876V138.242H379.228V139.833H373.876V143.008H380.146V144.599H372.345V133.468Z" stroke="#32C7B4" stroke-width="0.397412" mask="url(#path-29-inside-1_2773_293)"/>
<path d="M390.084 144.599H388.554V133.468H390.084L396.519 142.1V133.468H398.05V144.599H396.519L390.084 135.968V144.599Z" stroke="#32C7B4" stroke-width="0.397412" mask="url(#path-29-inside-1_2773_293)"/>
<path d="M406.913 135.059C406.913 134.842 406.953 134.638 407.032 134.446C407.112 134.25 407.221 134.081 407.361 133.942C407.5 133.797 407.662 133.683 407.846 133.6C408.035 133.512 408.234 133.468 408.443 133.468H414.251C414.46 133.468 414.657 133.512 414.841 133.6C415.03 133.683 415.194 133.797 415.334 133.942C415.473 134.081 415.582 134.25 415.662 134.446C415.742 134.638 415.782 134.842 415.782 135.059V136.495H414.251V135.059H408.443V143.008H414.251V141.58H415.782V143.008C415.782 143.225 415.742 143.432 415.662 143.629C415.582 143.82 415.473 143.988 415.334 144.133C415.194 144.278 415.03 144.392 414.841 144.475C414.657 144.558 414.46 144.599 414.251 144.599H408.443C408.234 144.599 408.035 144.558 407.846 144.475C407.662 144.392 407.5 144.278 407.361 144.133C407.221 143.988 407.112 143.82 407.032 143.629C406.953 143.432 406.913 143.225 406.913 143.008V135.059Z" stroke="#32C7B4" stroke-width="0.397412" mask="url(#path-29-inside-1_2773_293)"/>
<path d="M424.346 133.468H432.147V135.059H425.876V138.242H431.229V139.833H425.876V143.008H432.147V144.599H424.346V133.468Z" stroke="#32C7B4" stroke-width="0.397412" mask="url(#path-29-inside-1_2773_293)"/>
<defs>
<filter id="filter0_d_2773_293" x="122.933" y="9.27148" width="444.563" height="113.01" filterUnits="userSpaceOnUse" color-interpolation-filters="sRGB">
<feFlood flood-opacity="0" result="BackgroundImageFix"/>
<feColorMatrix in="SourceAlpha" type="matrix" values="0 0 0 0 0 0 0 0 0 0 0 0 0 0 0 0 0 0 127 0" result="hardAlpha"/>
<feOffset dy="1.77763"/>
<feGaussianBlur stdDeviation="0.888814"/>
<feComposite in2="hardAlpha" operator="out"/>
<feColorMatrix type="matrix" values="0 0 0 0 0 0 0 0 0 0 0 0 0 0 0 0 0 0 0.25 0"/>
<feBlend mode="normal" in2="BackgroundImageFix" result="effect1_dropShadow_2773_293"/>
<feBlend mode="normal" in="SourceGraphic" in2="effect1_dropShadow_2773_293" result="shape"/>
</filter>
<linearGradient id="paint0_linear_2773_293" x1="58.9339" y1="56.8235" x2="58.9339" y2="72.5542" gradientUnits="userSpaceOnUse">
<stop stop-color="#248E80"/>
<stop offset="1" stop-color="white"/>
</linearGradient>
<linearGradient id="paint1_linear_2773_293" x1="48.8287" y1="102.994" x2="48.8287" y2="118.724" gradientUnits="userSpaceOnUse">
<stop stop-color="#248E80"/>
<stop offset="1" stop-color="white"/>
</linearGradient>
<linearGradient id="paint2_linear_2773_293" x1="69.0169" y1="9.27197" x2="69.0169" y2="25.0027" gradientUnits="userSpaceOnUse">
<stop stop-color="#248E80"/>
<stop offset="1" stop-color="white"/>
</linearGradient>
<linearGradient id="paint3_linear_2773_293" x1="358.35" y1="9.27148" x2="358.35" y2="27.2444" gradientUnits="userSpaceOnUse">
<stop stop-color="#248E80"/>
<stop offset="1" stop-color="white"/>
</linearGradient>
<linearGradient id="paint4_linear_2773_293" x1="200.566" y1="113.146" x2="183.092" y2="79.6507" gradientUnits="userSpaceOnUse">
<stop stop-color="#32C7B4"/>
<stop offset="0.524038" stop-color="white"/>
<stop offset="1" stop-color="#248E80"/>
</linearGradient>
<linearGradient id="paint5_linear_2773_293" x1="223.345" y1="113.146" x2="240.819" y2="79.6507" gradientUnits="userSpaceOnUse">
<stop stop-color="#32C7B4"/>
<stop offset="0.524038" stop-color="white"/>
<stop offset="1" stop-color="#32C7B4"/>
</linearGradient>
<linearGradient id="paint6_linear_2773_293" x1="211.993" y1="55.5452" x2="222.424" y2="126.736" gradientUnits="userSpaceOnUse">
<stop stop-color="white"/>
<stop offset="1" stop-color="#009985"/>
</linearGradient>
<linearGradient id="paint7_linear_2773_293" x1="151.354" y1="17.8091" x2="151.354" y2="141.403" gradientUnits="userSpaceOnUse">
<stop stop-color="#32C7B4"/>
<stop offset="1" stop-color="#248E80"/>
</linearGradient>
<linearGradient id="paint8_linear_2773_293" x1="515.19" y1="41.4184" x2="515.19" y2="132.506" gradientUnits="userSpaceOnUse">
<stop stop-color="#32C7B4"/>
<stop offset="1" stop-color="#248E80"/>
</linearGradient>
<linearGradient id="paint9_linear_2773_293" x1="451.937" y1="36.5083" x2="451.937" y2="50.5035" gradientUnits="userSpaceOnUse">
<stop stop-color="#248E80"/>
<stop offset="1" stop-color="white"/>
</linearGradient>
<linearGradient id="paint10_linear_2773_293" x1="278.461" y1="52.9636" x2="278.461" y2="94.9092" gradientUnits="userSpaceOnUse">
<stop stop-color="#248E80"/>
<stop offset="1" stop-color="#32C7B4"/>
</linearGradient>
<linearGradient id="paint11_linear_2773_293" x1="262.865" y1="66.928" x2="262.865" y2="116.326" gradientUnits="userSpaceOnUse">
<stop stop-color="#32C7B4"/>
<stop offset="1" stop-color="white"/>
</linearGradient>
<linearGradient id="paint12_linear_2773_293" x1="294.184" y1="64.7066" x2="294.184" y2="116.326" gradientUnits="userSpaceOnUse">
<stop stop-color="#32C7B4"/>
<stop offset="1" stop-color="white"/>
</linearGradient>
<linearGradient id="paint13_linear_2773_293" x1="341.491" y1="52.9631" x2="341.491" y2="94.9087" gradientUnits="userSpaceOnUse">
<stop stop-color="#248E80"/>
<stop offset="1" stop-color="#32C7B4"/>
</linearGradient>
<linearGradient id="paint14_linear_2773_293" x1="325.819" y1="66.928" x2="325.819" y2="116.326" gradientUnits="userSpaceOnUse">
<stop stop-color="#32C7B4"/>
<stop offset="1" stop-color="white"/>
</linearGradient>
<linearGradient id="paint15_linear_2773_293" x1="357.03" y1="64.7066" x2="357.03" y2="116.326" gradientUnits="userSpaceOnUse">
<stop stop-color="#32C7B4"/>
<stop offset="1" stop-color="white"/>
</linearGradient>
<linearGradient id="paint16_linear_2773_293" x1="394.512" y1="49.6343" x2="394.512" y2="118.724" gradientUnits="userSpaceOnUse">
<stop stop-color="#32C7B4"/>
<stop offset="1" stop-color="#1D7166"/>
</linearGradient>
<linearGradient id="paint17_linear_2773_293" x1="564.666" y1="139.033" x2="446.646" y2="139.033" gradientUnits="userSpaceOnUse">
<stop stop-opacity="0"/>
<stop offset="1" stop-color="#32C7B4"/>
</linearGradient>
<linearGradient id="paint18_linear_2773_293" x1="0" y1="139.033" x2="118.021" y2="139.033" gradientUnits="userSpaceOnUse">
<stop stop-opacity="0"/>
<stop offset="1" stop-color="#32C7B4"/>
</linearGradient>
</defs>
</svg>
