<?xml version="1.0" encoding="iso-8859-1"?>
<!-- Generator: Adobe Illustrator 17.1.0, SVG Export Plug-In . SVG Version: 6.00 Build 0)  -->
<!DOCTYPE svg PUBLIC "-//W3C//DTD SVG 1.1//EN" "http://www.w3.org/Graphics/SVG/1.1/DTD/svg11.dtd">
<svg version="1.1" id="Capa_1" xmlns="http://www.w3.org/2000/svg" xmlns:xlink="http://www.w3.org/1999/xlink" x="0px" y="0px"
	 viewBox="0 0 550.196 550.196" style="enable-background:new 0 0 550.196 550.196;" xml:space="preserve">
<path d="M542.696,535.063h-20.668V254.297h6.584c4.143,0,7.5-3.357,7.5-7.5v-56.243c0-0.01,0-0.02,0-0.029v-0.064
	c0-0.068-0.008-0.134-0.01-0.202c-0.005-0.168-0.009-0.335-0.025-0.502c-0.012-0.124-0.032-0.245-0.05-0.368
	c-0.017-0.115-0.031-0.23-0.052-0.344c-0.028-0.147-0.065-0.291-0.102-0.435c-0.022-0.088-0.042-0.177-0.068-0.264
	c-0.044-0.149-0.096-0.295-0.149-0.44c-0.03-0.082-0.057-0.165-0.09-0.247c-0.055-0.137-0.117-0.27-0.18-0.402
	c-0.042-0.089-0.083-0.179-0.128-0.267c-0.061-0.116-0.127-0.227-0.193-0.339c-0.06-0.101-0.118-0.202-0.182-0.3
	c-0.062-0.094-0.128-0.184-0.193-0.274c-0.078-0.109-0.156-0.217-0.241-0.322c-0.063-0.078-0.131-0.152-0.197-0.228
	c-0.094-0.107-0.187-0.214-0.287-0.316c-0.074-0.075-0.152-0.145-0.229-0.217c-0.098-0.092-0.195-0.185-0.299-0.271
	c-0.102-0.086-0.209-0.164-0.316-0.245c-0.085-0.064-0.168-0.131-0.257-0.192c-0.155-0.107-0.315-0.204-0.478-0.299
	c-0.043-0.025-0.083-0.055-0.127-0.079c-0.006-0.003-0.031-0.017-0.042-0.023c-0.017-0.009-0.033-0.019-0.049-0.027
	c-3.374-1.879-106.794-59.512-143.564-84.132c-32.289-21.62-107.447-96.64-108.202-97.395c-2.93-2.928-7.677-2.928-10.606,0
	c-0.755,0.755-75.904,75.769-108.201,97.394c-36.773,24.622-140.222,82.271-143.567,84.133c-0.016,0.008-0.031,0.017-0.046,0.026
	c-0.012,0.007-0.038,0.021-0.044,0.024c-0.047,0.026-0.088,0.057-0.134,0.084c-0.159,0.093-0.317,0.188-0.469,0.292
	c-0.093,0.063-0.179,0.133-0.268,0.2c-0.103,0.078-0.206,0.153-0.305,0.236c-0.108,0.09-0.208,0.186-0.309,0.281
	c-0.073,0.069-0.148,0.135-0.218,0.207c-0.104,0.105-0.2,0.216-0.297,0.327c-0.063,0.072-0.127,0.142-0.187,0.216
	c-0.088,0.109-0.169,0.222-0.251,0.335c-0.062,0.086-0.125,0.171-0.183,0.26c-0.068,0.104-0.13,0.209-0.192,0.316
	c-0.063,0.106-0.126,0.212-0.183,0.322c-0.049,0.094-0.093,0.19-0.138,0.287c-0.059,0.126-0.119,0.252-0.171,0.382
	c-0.036,0.089-0.066,0.179-0.098,0.269c-0.05,0.139-0.099,0.277-0.141,0.419c-0.028,0.095-0.05,0.192-0.074,0.288
	c-0.034,0.136-0.07,0.272-0.096,0.411c-0.024,0.123-0.039,0.247-0.057,0.372c-0.016,0.113-0.035,0.226-0.046,0.341
	c-0.017,0.177-0.023,0.355-0.027,0.533c-0.001,0.059-0.009,0.116-0.009,0.175v0.057c0,0.014,0,0.028,0,0.042v56.238
	c0,4.143,3.358,7.5,7.5,7.5h6.584v280.767H7.5c-4.142,0-7.5,3.357-7.5,7.5s3.358,7.5,7.5,7.5h28.168h29.334h47.838h29.334h265.849
	h29.334h47.838h29.334h28.168c4.143,0,7.5-3.357,7.5-7.5S546.839,535.063,542.696,535.063z M169.94,112.187
	c28.741-19.245,87.152-76.204,105.158-93.987c18.005,17.783,76.419,74.743,105.16,93.988c26.655,17.847,85.763,51.64,119.659,70.771
	h-13.557c-4.143,0-7.5,3.357-7.5,7.5s3.357,7.5,7.5,7.5h34.753v41.337h-6.584h-29.334h-47.838h-29.334H142.174H112.84H65.002H35.668
	h-6.584V197.96h415.023c4.143,0,7.5-3.357,7.5-7.5s-3.357-7.5-7.5-7.5H50.279C84.175,163.828,143.286,130.034,169.94,112.187z
	 M477.694,254.297v280.767h-32.838V254.297H477.694z M400.522,254.297v280.767H149.674V254.297H400.522z M105.34,254.297v280.767
	H72.502V254.297H105.34z M43.168,535.063V254.297h14.334v280.767H43.168z M120.34,535.063V254.297h14.334v280.767H120.34z
	 M415.522,535.063V254.297h14.334v280.767H415.522z M492.694,535.063V254.297h14.334v280.767H492.694z"/>
<g>
</g>
<g>
</g>
<g>
</g>
<g>
</g>
<g>
</g>
<g>
</g>
<g>
</g>
<g>
</g>
<g>
</g>
<g>
</g>
<g>
</g>
<g>
</g>
<g>
</g>
<g>
</g>
<g>
</g>
</svg>
